<!DOCTYPE svg PUBLIC "-//W3C//DTD SVG 20010904//EN" "http://www.w3.org/TR/2001/REC-SVG-20010904/DTD/svg10.dtd">
<svg version="1.0" xmlns="http://www.w3.org/2000/svg" width="479px" height="443px" viewBox="0 0 4790 4430" preserveAspectRatio="xMidYMid meet">
<g id="layer1" fill="#010101" stroke="none">
 <path d="M2265 3606 c8 -41 -7 -49 -81 -41 -27 3 -173 8 -324 12 -320 7 -312 9 -310 -81 1 -28 -1 -119 -6 -203 -7 -146 -6 -153 16 -190 33 -56 230 -332 243 -340 5 -3 39 -5 74 -4 61 2 63 2 63 -23 0 -14 5 -28 10 -31 6 -3 10 -15 10 -25 0 -25 12 -27 179 -35 l144 -7 -7 28 c-3 16 -9 45 -12 65 l-6 36 117 7 c167 11 159 5 161 116 2 106 12 277 20 363 5 47 3 58 -8 55 -8 -2 -69 55 -136 127 -97 105 -122 137 -127 168 -4 20 -11 37 -16 37 -6 0 -7 -15 -4 -34z m-164 -57 c74 -5 144 -9 155 -9 18 0 19 -7 17 -137 -1 -76 -4 -151 -7 -168 l-6 -30 -192 0 c-192 0 -383 -9 -467 -21 l-44 -7 8 179 c4 99 12 184 17 191 17 21 238 22 519 2z m281 -151 c-3 -27 3 -40 33 -71 34 -35 48 -40 51 -16 1 5 2 13 3 18 0 5 19 -7 41 -26 24 -22 38 -43 36 -52 -3 -9 -7 -56 -11 -106 -3 -49 -10 -134 -17 -187 -13 -115 -12 -115 -95 11 -57 85 -102 147 -135 185 -10 11 -16 29 -13 43 3 12 8 35 11 51 3 15 6 86 5 157 l0 130 48 -52 c40 -44 46 -57 43 -85z m68 -45 c0 -19 -14 -16 -34 6 -24 27 -11 48 15 25 10 -9 19 -23 19 -31z m-192 -192 c8 -14 28 -39 43 -56 15 -16 60 -79 100 -140 40 -60 81 -118 91 -128 10 -10 18 -22 18 -26 0 -9 -247 -27 -255 -19 -2 2 -1 17 4 34 5 19 15 30 29 32 12 2 22 -1 22 -7 0 -6 -9 -11 -20 -11 -11 0 -20 -4 -20 -10 0 -5 6 -10 14 -10 30 0 46 13 46 37 l0 24 -127 -8 c-71 -4 -177 -7 -236 -8 l-108 0 3 -30 c3 -27 6 -30 36 -27 24 3 32 0 32 -12 0 -13 -12 -16 -59 -16 l-60 0 -54 73 c-109 147 -156 215 -176 257 -11 24 -20 45 -18 46 3 3 158 23 212 27 22 1 136 3 253 3 l214 1 16 -26z m-3 -480 l7 -24 -77 6 c-43 4 -102 7 -131 7 -50 0 -54 2 -75 37 -15 23 -23 54 -24 84 l-1 47 115 7 c64 3 127 7 141 8 24 2 25 -1 31 -73 3 -41 9 -86 14 -99z m-331 163 c22 -9 10 -24 -20 -24 -15 0 -24 6 -24 15 0 16 17 19 44 9z"/>
 <path d="M1821 3148 c-86 -5 -137 -12 -142 -20 -10 -16 3 -39 67 -120 29 -38 54 -72 56 -76 1 -5 41 -5 88 0 47 4 156 8 242 9 95 0 160 4 164 10 3 6 -20 49 -52 97 -33 47 -58 92 -56 99 3 16 -120 16 -367 1z m386 -80 c72 -107 73 -103 -11 -102 -39 1 -141 -3 -226 -8 l-155 -9 -23 28 c-56 67 -103 135 -98 140 3 3 56 8 118 11 62 2 114 6 116 7 2 2 54 3 116 4 l113 2 50 -73z"/>
 <path d="M3199 2872 c-16 -14 -20 -24 -14 -38 4 -10 7 -25 6 -31 -2 -15 8 -16 28 -4 9 6 29 2 55 -10 54 -24 100 -24 190 3 46 13 83 18 100 14 25 -6 27 -10 20 -34 -5 -15 -9 -50 -9 -79 0 -55 4 -61 93 -132 62 -48 90 -117 64 -158 -14 -22 -64 -35 -78 -21 -12 13 -87 152 -95 177 -4 10 -43 15 -159 18 -85 2 -225 10 -310 18 -169 15 -464 15 -479 -1 -15 -14 -33 -220 -25 -282 7 -55 7 -55 -15 -40 -12 9 -38 38 -59 65 -20 27 -51 66 -69 86 l-32 37 -486 -3 c-421 -2 -486 -4 -489 -17 -3 -8 -7 -54 -11 -102 -4 -49 -10 -90 -15 -93 -4 -2 -36 7 -71 21 -98 39 -153 100 -142 158 7 34 46 53 130 62 87 10 101 22 101 89 -1 54 -1 55 -29 55 -16 0 -29 -2 -29 -5 0 -12 24 -55 32 -55 10 0 11 -47 1 -53 -5 -3 -30 -8 -58 -11 -103 -13 -123 -18 -144 -37 -28 -27 -27 -79 3 -127 32 -50 46 -61 119 -87 46 -17 63 -28 65 -44 2 -11 6 -21 10 -21 4 0 6 -62 4 -137 l-3 -138 61 -75 c34 -41 74 -91 90 -110 16 -19 54 -68 85 -108 56 -71 58 -72 93 -66 l35 7 -6 -65 -6 -66 116 -102 116 -103 251 1 c138 0 258 1 268 1 12 1 15 9 12 39 -2 20 -6 80 -10 133 -6 86 -5 97 11 103 13 5 16 13 11 36 l-5 30 94 0 c51 0 96 3 98 8 2 4 7 21 11 37 5 23 4 27 -5 15 -8 -11 -9 9 -5 80 4 52 10 109 13 125 l7 30 7 -30 c3 -16 4 -56 1 -88 -4 -49 -2 -60 17 -80 12 -12 48 -49 79 -83 l57 -61 120 -16 c138 -20 171 -21 180 -7 8 13 14 72 14 153 1 60 3 67 21 67 15 0 20 -7 20 -25 0 -14 14 -41 33 -62 26 -29 75 -96 81 -110 1 -1 56 -7 124 -13 95 -9 126 -9 137 0 10 8 15 39 17 108 l3 97 31 3 31 3 -1 289 c-1 160 -4 290 -7 290 -5 0 -29 45 -29 55 0 3 11 5 24 5 31 0 66 43 66 81 0 43 -14 71 -56 109 -111 103 -114 107 -114 142 0 19 5 50 12 68 10 30 9 35 -12 52 -29 23 -62 23 -128 -2 -62 -24 -129 -26 -178 -5 -26 11 -34 19 -30 31 6 17 -9 54 -23 54 -5 0 -19 -8 -32 -18z m21 -27 c-7 -9 -15 -13 -17 -11 -7 7 7 26 19 26 6 0 6 -6 -2 -15z m-1810 -235 c0 -5 -4 -10 -10 -10 -5 0 -10 5 -10 10 0 6 5 10 10 10 6 0 10 -4 10 -10z m1720 -38 c47 -6 157 -12 245 -14 l160 -3 0 -190 c1 -150 -2 -191 -13 -195 -7 -3 -52 -2 -100 3 -48 4 -170 5 -272 1 -102 -4 -196 -7 -210 -7 -14 1 -94 -3 -179 -8 -85 -5 -155 -8 -157 -7 -5 5 14 416 19 425 7 11 404 8 507 -5z m474 -148 c22 -47 49 -95 60 -108 20 -21 21 -34 22 -269 0 -136 -1 -247 -2 -247 -1 0 -12 28 -24 63 -13 34 -40 105 -61 157 -37 95 -37 96 -44 293 -4 110 -4 197 1 197 5 -1 27 -39 48 -86z m-1214 -6 c0 -13 -5 -77 -10 -143 -6 -66 -12 -160 -15 -209 -2 -49 -8 -93 -13 -98 -10 -10 -157 -15 -652 -22 l-285 -5 6 122 c4 67 12 165 19 217 7 52 13 109 13 125 l-1 30 469 3 469 2 0 -22z m71 -45 c18 -27 53 -69 78 -95 42 -46 43 -49 37 -97 -5 -37 -3 -51 9 -61 8 -7 15 -17 15 -23 0 -6 6 -18 14 -26 8 -9 31 -45 51 -81 32 -57 36 -72 36 -135 0 -38 -4 -107 -8 -153 l-8 -83 -110 113 c-144 147 -179 191 -187 236 -10 53 -9 147 1 217 5 33 12 99 16 148 4 48 10 87 14 87 4 0 23 -21 42 -47z m974 -222 c3 -6 25 -11 48 -11 41 0 43 -1 65 -51 12 -28 22 -55 22 -59 0 -5 7 -26 16 -47 9 -21 20 -47 24 -58 4 -11 22 -55 39 -97 36 -90 36 -88 16 -88 -8 0 -15 6 -15 14 0 8 -7 21 -15 29 -8 8 -24 33 -35 55 -23 44 -26 45 -147 62 -71 11 -82 15 -87 34 -3 12 -24 32 -46 45 -22 12 -40 28 -40 35 0 26 103 51 112 27 2 -5 16 -11 33 -13 23 -2 30 1 33 16 2 11 -4 26 -14 33 -21 15 -74 18 -74 3 0 -5 -14 -10 -30 -10 -33 0 -84 -42 -77 -63 2 -7 22 -25 45 -40 56 -38 55 -56 -2 -52 -44 3 -45 2 -48 -29 -3 -29 -5 -31 -42 -29 -46 3 -71 23 -88 69 -8 23 -20 35 -37 38 -80 17 -271 36 -303 30 -36 -5 -38 -7 -38 -45 0 -21 -3 -39 -7 -39 -17 0 -139 218 -128 228 2 3 116 7 252 10 137 2 249 5 251 7 10 9 311 5 317 -4z m5 -95 c0 -9 -7 -12 -20 -9 -11 3 -20 9 -20 14 0 5 9 9 20 9 11 0 20 -6 20 -14z m-453 -97 c92 -12 102 -15 107 -35 9 -36 9 -205 -1 -214 -7 -8 -120 9 -277 41 l-58 12 3 101 4 101 30 6 c17 4 44 5 60 3 17 -2 76 -9 132 -15z m-566 -89 c28 -36 99 -113 157 -172 l107 -108 -88 0 c-68 0 -89 -3 -93 -15 -3 -8 -16 -17 -27 -21 -22 -7 -22 -7 -2 -15 20 -8 20 -8 0 -8 -12 -1 -26 -6 -33 -13 -9 -9 -12 -6 -12 15 0 17 5 27 15 27 8 0 15 5 15 11 0 6 -10 9 -22 7 -20 -3 -23 -9 -22 -42 2 -44 23 -64 41 -39 7 9 14 15 17 12 5 -7 16 -219 11 -219 -9 0 -111 104 -128 130 -13 20 -18 63 -23 185 l-7 159 31 -23 c18 -12 32 -26 32 -30 0 -11 110 -104 117 -98 5 6 -147 155 -175 171 -14 8 -561 11 -569 3 -2 -2 -5 -30 -8 -62 -3 -32 -7 -61 -10 -63 -7 -7 -93 39 -111 60 -15 15 -12 18 26 38 37 19 41 24 38 52 -2 25 -9 33 -32 39 -16 5 -39 20 -51 35 -18 23 -24 25 -43 15 -39 -21 -24 -58 23 -59 35 -1 85 -18 85 -29 0 -17 -16 -30 -45 -40 -24 -8 -30 -15 -30 -38 0 -34 56 -84 106 -94 24 -5 35 -14 42 -34 12 -37 6 -41 -37 -26 -26 10 -56 38 -111 108 -41 53 -95 122 -121 154 -35 44 -44 61 -35 70 8 8 101 12 303 15 161 1 293 4 294 5 1 1 75 2 163 2 l160 0 52 -65z m1033 9 l98 -13 -6 -45 c-4 -25 -9 -73 -12 -107 l-6 -61 -42 8 c-22 5 -78 8 -122 9 -65 0 -83 3 -88 16 -10 26 -7 132 4 139 6 3 7 18 4 32 -8 30 10 45 46 39 14 -2 69 -10 124 -17z m-1854 1 c0 -5 -7 -10 -15 -10 -8 0 -15 5 -15 10 0 6 7 10 15 10 8 0 15 -4 15 -10z m1560 -35 c30 -44 31 -49 31 -147 0 -56 -3 -103 -5 -105 -2 -3 -20 22 -38 54 -34 57 -34 60 -30 151 2 50 6 92 8 92 2 0 17 -20 34 -45z m78 -15 c8 0 12 -16 12 -45 0 -39 -3 -45 -21 -45 -19 0 -21 4 -15 31 5 24 1 35 -17 51 l-22 20 25 -6 c14 -3 31 -6 38 -6z m366 -33 c13 -5 16 -23 16 -85 0 -44 -3 -100 -6 -125 l-7 -46 -30 41 c-29 41 -30 44 -24 127 4 47 10 97 13 110 7 23 8 24 15 4 4 -11 14 -23 23 -26z m-1297 -30 c4 -5 9 -78 11 -163 l2 -154 -57 -2 c-93 -3 -280 1 -388 8 l-100 7 -3 153 -3 153 33 3 c65 8 497 3 505 -5z m598 -52 c50 -9 109 -19 133 -22 44 -6 59 -23 20 -23 -20 0 -131 16 -260 37 -24 3 -38 11 -38 20 0 11 8 14 28 10 15 -3 68 -12 117 -22z m45 -51 c63 -10 121 -21 127 -27 24 -18 93 -127 81 -127 -6 0 -66 7 -132 16 l-121 16 -48 47 c-27 25 -58 59 -69 75 l-21 29 34 -6 c19 -4 86 -14 149 -23z m195 -49 c20 -30 35 -59 33 -65 -4 -14 -78 85 -78 105 0 24 7 18 45 -40z m338 24 c26 -6 47 -14 47 -19 0 -4 16 -28 36 -54 l35 -47 -73 6 c-122 9 -131 12 -174 58 -77 81 -77 78 7 72 41 -3 95 -10 122 -16z m-1340 -213 l177 -1 85 -85 c81 -83 83 -85 57 -90 -15 -4 -127 -6 -248 -5 l-222 0 -53 45 c-30 24 -73 63 -97 85 -24 22 -48 42 -53 43 -5 2 -9 8 -9 14 0 8 29 8 93 3 50 -5 172 -9 270 -9z"/>
 <path d="M1994 1635 c-8 -20 13 -45 38 -45 27 0 35 30 13 46 -25 18 -44 18 -51 -1z"/>
 <path d="M2391 2484 c0 -11 3 -14 6 -6 3 7 2 16 -1 19 -3 4 -6 -2 -5 -13z"/>
 <path d="M1862 989 c-12 -11 -20 -25 -16 -30 3 -6 12 -2 21 10 19 28 40 26 90 -7 82 -54 142 -158 129 -226 -11 -55 -57 -62 -128 -17 -78 49 -82 66 -53 184 5 16 3 27 -3 27 -13 0 -24 -33 -27 -80 -1 -19 -7 -36 -14 -38 -6 -2 -8 -14 -5 -27 6 -24 -11 -180 -25 -232 l-7 -27 -19 32 c-21 34 -39 44 -27 14 8 -21 58 -82 66 -82 4 0 25 -13 48 -30 52 -38 85 -39 98 -4 19 48 10 84 -46 191 -48 94 -51 104 -27 82 109 -102 218 -61 184 69 -16 57 -92 156 -144 186 -53 31 -67 32 -95 5z m66 -340 c44 -82 62 -161 44 -188 -13 -19 -49 -8 -91 26 l-33 29 13 107 c7 59 15 107 18 107 3 0 25 -37 49 -81z"/>
 <path d="M528 958 c-44 -25 -57 -54 -60 -126 -1 -40 3 -57 17 -70 17 -16 17 -16 10 8 -10 33 -6 119 6 142 22 41 98 60 135 34 17 -13 19 -27 18 -123 0 -95 -4 -120 -33 -206 -27 -80 -32 -108 -28 -156 l4 -59 -50 14 c-75 20 -161 29 -153 16 3 -6 32 -14 64 -18 83 -10 175 -29 274 -57 48 -14 89 -22 92 -19 14 13 3 20 -40 27 -74 11 -158 35 -166 48 -15 24 -7 116 17 190 34 104 48 200 40 274 -5 51 -11 67 -32 83 -33 26 -68 25 -115 -2z"/>
 <path d="M2447 952 c-9 -10 -26 -46 -39 -80 -12 -34 -26 -62 -30 -62 -4 0 -8 4 -8 8 0 19 -81 133 -90 127 -6 -4 2 -21 20 -41 16 -19 39 -53 51 -75 23 -45 23 -44 -40 -111 -19 -21 -32 -41 -28 -45 9 -8 54 33 78 72 l18 29 37 -79 c21 -44 39 -75 41 -68 2 6 -12 45 -31 85 l-35 74 30 75 c16 41 36 79 44 85 8 6 15 14 15 18 0 12 -17 6 -33 -12z"/>
 <path d="M2552 913 c-23 -21 -44 -98 -32 -122 4 -9 15 -33 24 -54 19 -44 38 -54 71 -37 41 22 37 37 -21 69 -49 28 -54 34 -54 65 0 19 8 44 18 56 18 22 19 22 45 5 32 -21 37 -3 5 19 -28 20 -31 20 -56 -1z m41 -162 c30 -16 35 -29 12 -38 -18 -6 -55 23 -55 44 0 8 3 13 8 11 4 -2 19 -10 35 -17z"/>
 <path d="M1055 883 c-4 -10 -11 -74 -16 -143 -5 -69 -15 -178 -22 -243 -7 -65 -9 -121 -5 -123 5 -3 8 -2 8 3 0 4 5 35 10 68 6 33 15 137 20 230 8 130 14 173 25 181 9 7 13 19 9 28 -8 21 -20 20 -29 -1z"/>
 <path d="M799 868 c-14 -26 -27 -180 -17 -205 9 -23 9 -22 13 72 3 82 17 135 35 135 26 0 45 -55 45 -132 0 -92 17 -100 26 -12 7 64 23 114 37 114 5 0 14 -10 20 -22 11 -23 11 -23 11 3 1 30 -22 55 -40 44 -6 -4 -17 -21 -24 -38 l-12 -30 -13 37 c-18 55 -60 73 -81 34z"/>
 <path d="M2171 853 c-16 -56 -13 -94 9 -130 25 -42 39 -41 69 2 48 71 25 165 -40 165 -24 0 -30 -6 -38 -37z m84 -14 c10 -31 -2 -83 -26 -110 -20 -23 -21 -24 -35 -5 -19 27 -18 120 2 140 19 19 49 7 59 -25z"/>
 <path d="M2727 848 c-18 -15 -39 -63 -30 -72 12 -12 22 -6 16 9 -7 19 24 55 46 55 25 0 61 -29 61 -50 0 -17 -13 -29 -94 -94 -28 -22 -29 -25 -16 -55 7 -17 25 -40 40 -51 53 -38 94 -18 88 41 -4 46 -23 47 -23 2 0 -31 -4 -39 -21 -41 -22 -3 -74 48 -74 72 0 7 23 27 50 45 79 51 90 99 31 134 -35 20 -51 21 -74 5z"/>
 <path d="M1360 807 c-11 -24 -20 -70 -21 -104 -2 -47 -5 -60 -15 -56 -8 3 -14 0 -14 -6 0 -7 7 -14 15 -17 12 -5 15 -26 15 -105 0 -68 4 -99 11 -99 9 0 10 25 6 90 -6 79 -5 90 10 90 14 0 14 2 -2 20 -15 17 -17 30 -11 85 8 79 23 125 35 106 6 -10 10 -9 15 4 3 9 4 21 0 26 -11 19 -26 8 -44 -34z"/>
 <path d="M1106 753 c-4 -32 -9 -66 -12 -75 -3 -10 -1 -18 5 -18 12 0 17 21 25 98 7 71 -10 66 -18 -5z"/>
 <path d="M1243 788 c-11 -13 -24 -33 -27 -45 -5 -15 -12 -20 -24 -16 -15 6 -15 5 -2 -11 8 -10 15 -36 16 -57 4 -67 42 -107 72 -77 22 22 14 63 -18 93 -35 33 -37 54 -11 86 20 24 20 24 35 4 18 -23 22 -4 6 26 -14 25 -22 24 -47 -3z m25 -148 c8 -13 7 -23 -3 -36 -18 -25 -34 -10 -42 40 -6 36 -5 37 14 26 11 -7 25 -21 31 -30z"/>
 <path d="M1516 769 c-14 -17 -26 -34 -26 -39 0 -5 -3 -15 -6 -24 -3 -9 -1 -16 5 -16 6 0 11 8 11 19 0 25 44 71 68 71 11 0 23 -7 26 -15 9 -24 -23 -92 -57 -121 l-31 -26 19 -34 c25 -47 53 -70 66 -57 8 8 4 16 -15 28 -48 31 -52 53 -18 89 38 40 52 68 52 103 0 59 -53 72 -94 22z"/>
 <path d="M1438 613 c-2 -10 -1 -34 3 -53 7 -40 10 -33 13 27 1 43 -8 58 -16 26z"/>
 <path d="M1085 579 c-9 -14 -2 -20 14 -10 8 6 9 11 3 15 -6 3 -14 1 -17 -5z"/>
 </g>
<g id="layer2" fill="#fdfdfd" stroke="none">
 <path d="M0 2215 l0 -2215 2395 0 2395 0 0 2215 0 2215 -2395 0 -2395 0 0 -2215z m2285 1388 c5 -31 30 -63 127 -168 67 -72 128 -129 136 -127 11 3 13 -8 8 -55 -8 -86 -18 -257 -20 -363 -2 -111 6 -105 -161 -116 l-117 -7 6 -36 c3 -20 9 -49 12 -65 l7 -28 -144 7 c-167 8 -179 10 -179 35 0 10 -4 22 -10 25 -5 3 -10 17 -10 31 0 25 -2 25 -63 23 -35 -1 -69 1 -74 4 -13 8 -210 284 -243 340 -22 37 -23 44 -16 190 5 84 7 175 6 203 -2 90 -10 88 310 81 151 -4 297 -9 324 -12 74 -8 89 0 81 41 -3 19 -2 34 4 34 5 0 12 -17 16 -37z m965 -732 c5 -11 7 -27 4 -35 -4 -12 4 -20 30 -31 49 -21 116 -19 178 5 66 25 99 25 128 2 21 -17 22 -22 12 -52 -7 -18 -12 -49 -12 -68 0 -35 3 -39 114 -142 42 -38 56 -66 56 -109 0 -38 -35 -81 -66 -81 -13 0 -24 -2 -24 -5 0 -10 24 -55 29 -55 3 0 6 -130 7 -290 l1 -289 -31 -3 -31 -3 -3 -97 c-2 -69 -7 -100 -17 -108 -11 -9 -42 -9 -137 0 -68 6 -123 12 -124 13 -6 14 -55 81 -81 110 -19 21 -33 48 -33 62 0 18 -5 25 -20 25 -18 0 -20 -7 -21 -67 0 -81 -6 -140 -14 -153 -9 -14 -42 -13 -180 7 l-120 16 -57 61 c-31 34 -67 71 -79 83 -19 20 -21 31 -17 80 3 32 2 72 -1 88 l-7 30 -7 -30 c-3 -16 -9 -73 -13 -125 -4 -71 -3 -91 5 -80 9 12 10 8 5 -15 -4 -16 -9 -33 -11 -37 -2 -5 -47 -8 -98 -8 l-94 0 5 -30 c5 -23 2 -31 -11 -36 -16 -6 -17 -17 -11 -103 4 -53 8 -113 10 -133 3 -30 0 -38 -12 -39 -10 0 -130 -1 -268 -1 l-251 -1 -116 103 -116 102 6 66 6 65 -35 -7 c-35 -6 -37 -5 -93 66 -31 40 -69 89 -85 108 -16 19 -56 69 -90 110 l-61 75 3 138 c2 75 0 137 -4 137 -4 0 -8 10 -10 21 -2 16 -19 27 -65 44 -73 26 -87 37 -119 87 -30 48 -31 100 -3 127 21 19 41 24 144 37 28 3 53 8 58 11 10 6 9 53 -1 53 -8 0 -32 43 -32 55 0 3 13 5 29 5 28 0 28 -1 29 -55 0 -67 -14 -79 -101 -89 -84 -9 -123 -28 -130 -62 -11 -58 44 -119 142 -158 35 -14 67 -23 71 -21 5 3 11 44 15 93 4 48 8 94 11 102 3 13 68 15 489 17 l486 3 32 -37 c18 -20 49 -59 69 -86 21 -27 47 -56 59 -65 22 -15 22 -15 15 40 -8 62 10 268 25 282 15 16 310 16 479 1 85 -8 225 -16 310 -18 116 -3 155 -8 159 -18 8 -25 83 -164 95 -177 14 -14 64 -1 78 21 26 41 -2 110 -64 158 -89 71 -93 77 -93 132 0 29 4 64 9 79 7 24 5 28 -20 34 -17 4 -54 -1 -100 -14 -90 -27 -136 -27 -190 -3 -26 12 -46 16 -55 10 -20 -12 -30 -11 -28 4 1 6 -2 21 -6 31 -6 14 -2 24 14 38 29 23 38 23 51 -1z m-853 -393 c-3 -8 -6 -5 -6 6 -1 11 2 17 5 13 3 -3 4 -12 1 -19z m-440 -1494 c52 -30 128 -129 144 -186 34 -130 -75 -171 -184 -69 -24 22 -21 12 27 -82 56 -107 65 -143 46 -191 -13 -35 -46 -34 -98 4 -23 17 -44 30 -48 30 -8 0 -58 61 -66 82 -12 30 6 20 27 -14 l19 -32 7 27 c14 52 31 208 25 232 -3 13 -1 25 5 27 7 2 13 19 14 38 3 47 14 80 27 80 6 0 8 -11 3 -27 -29 -118 -25 -135 53 -184 71 -45 117 -38 128 17 13 68 -47 172 -129 226 -50 33 -71 35 -90 7 -9 -12 -18 -16 -21 -10 -8 12 32 51 53 51 8 0 34 -12 58 -26z m-1314 -24 c49 -39 46 -192 -8 -357 -24 -74 -32 -166 -17 -190 8 -13 92 -37 166 -48 43 -7 54 -14 40 -27 -3 -3 -44 5 -92 19 -99 28 -191 47 -274 57 -32 4 -61 12 -64 18 -8 13 78 4 153 -16 l50 -14 -4 59 c-4 48 1 76 28 156 29 86 33 111 33 206 1 96 -1 110 -18 123 -37 26 -113 7 -135 -34 -12 -23 -16 -109 -6 -142 7 -24 7 -24 -10 -8 -14 13 -18 30 -17 70 3 72 16 101 60 126 47 27 82 28 115 2z m1837 4 c0 -4 -7 -12 -15 -18 -8 -6 -28 -44 -44 -85 l-30 -75 35 -74 c19 -40 33 -79 31 -85 -2 -7 -20 24 -41 68 l-37 79 -18 -29 c-24 -39 -69 -80 -78 -72 -4 4 9 24 28 45 63 67 63 66 40 111 -12 22 -35 56 -51 75 -18 20 -26 37 -20 41 9 6 90 -108 90 -127 0 -4 4 -8 8 -8 4 0 18 28 30 62 22 60 46 98 64 98 4 0 8 -3 8 -6z m128 -50 c32 -22 27 -40 -5 -19 -26 17 -27 17 -45 -5 -10 -12 -18 -37 -18 -56 0 -31 5 -37 54 -65 58 -32 62 -47 21 -69 -33 -17 -52 -7 -71 37 -9 21 -20 45 -24 54 -12 24 9 101 32 122 25 21 28 21 56 1z m-1524 -30 c4 -9 0 -21 -9 -28 -11 -8 -17 -51 -25 -181 -5 -93 -14 -197 -20 -230 -5 -33 -10 -64 -10 -68 0 -5 -3 -6 -8 -3 -4 2 -2 58 5 123 7 65 17 174 22 243 9 125 16 160 31 160 4 0 11 -7 14 -16z m-234 -4 c10 -5 24 -26 30 -46 l13 -37 12 30 c7 17 18 34 24 38 18 11 41 -14 40 -44 0 -26 0 -26 -11 -3 -6 12 -15 22 -20 22 -14 0 -30 -50 -37 -114 -9 -88 -26 -80 -26 12 0 77 -19 132 -45 132 -18 0 -32 -53 -35 -135 -4 -94 -4 -95 -13 -72 -10 25 3 179 17 205 13 24 23 27 51 12z m1406 -11 c27 -30 24 -98 -7 -144 -30 -43 -44 -44 -69 -2 -22 36 -25 74 -9 130 8 31 14 37 38 37 16 0 36 -9 47 -21z m545 -26 c59 -35 48 -83 -31 -134 -27 -18 -50 -38 -50 -45 0 -24 52 -75 74 -72 17 2 21 10 21 41 0 45 19 44 23 -2 6 -59 -35 -79 -88 -41 -15 11 -33 34 -40 51 -13 30 -12 33 16 55 81 65 94 77 94 94 0 21 -36 50 -61 50 -22 0 -53 -36 -46 -55 6 -15 -4 -21 -16 -9 -9 9 12 57 30 72 23 16 39 15 74 -5z m-1397 -2 c4 -5 3 -17 0 -26 -5 -13 -9 -14 -15 -4 -12 19 -27 -27 -35 -106 -6 -55 -4 -68 11 -85 16 -18 16 -20 2 -20 -15 0 -16 -11 -10 -90 4 -65 3 -90 -6 -90 -7 0 -11 31 -11 99 0 79 -3 100 -15 105 -8 3 -15 10 -15 17 0 6 6 9 14 6 10 -4 13 9 15 56 2 87 44 173 65 138z m-280 -83 c-8 -77 -13 -98 -25 -98 -6 0 -8 8 -5 18 3 9 8 43 12 75 8 71 25 76 18 5z m166 33 c16 -30 12 -49 -6 -26 -15 20 -15 20 -35 -4 -26 -32 -24 -53 11 -86 32 -30 40 -71 18 -93 -30 -30 -68 10 -72 77 -1 21 -8 47 -16 57 -13 16 -13 17 2 11 12 -4 19 1 24 16 7 24 43 67 55 67 5 0 13 -9 19 -19z m308 -3 c15 -15 16 -62 1 -91 -6 -12 -25 -36 -41 -53 -34 -36 -30 -58 18 -89 19 -12 23 -20 15 -28 -13 -13 -41 10 -66 57 l-19 34 31 26 c34 29 66 97 57 121 -3 8 -15 15 -26 15 -24 0 -68 -46 -68 -71 0 -11 -5 -19 -11 -19 -6 0 -8 7 -5 16 3 9 6 19 6 24 0 5 12 22 26 39 27 32 61 40 82 19z m-144 -201 c-3 -60 -6 -67 -13 -27 -7 36 -3 70 8 70 3 0 5 -19 5 -43z m-355 -18 c-16 -10 -23 -4 -14 10 3 6 11 8 17 5 6 -4 5 -9 -3 -15z"/>
 <path d="M1673 3562 c-48 -2 -85 -8 -91 -15 -5 -7 -13 -92 -17 -191 l-8 -179 44 7 c84 12 275 21 467 21 l192 0 6 30 c3 17 6 92 7 168 2 130 1 137 -17 137 -11 0 -81 4 -155 9 -172 13 -323 17 -428 13z"/>
 <path d="M2291 3405 c1 -71 -2 -142 -5 -157 -3 -16 -8 -39 -11 -51 -3 -14 3 -32 13 -43 33 -38 78 -100 135 -185 83 -126 82 -126 95 -11 7 53 14 138 17 187 4 50 8 97 11 106 2 9 -12 30 -36 52 -22 19 -41 31 -41 26 -1 -5 -2 -13 -3 -18 -3 -24 -17 -19 -51 16 -30 31 -36 44 -33 71 3 28 -3 41 -43 85 l-48 52 0 -130z"/>
 <path d="M2405 3390 c-7 -11 21 -50 37 -50 15 0 8 27 -11 44 -13 12 -21 14 -26 6z"/>
 <path d="M1775 3183 c-54 -4 -209 -24 -212 -27 -2 -1 7 -22 18 -46 20 -42 67 -110 176 -257 l54 -73 60 0 c47 0 59 3 59 16 0 12 -8 15 -32 12 -30 -3 -33 0 -36 27 l-3 30 108 0 c59 1 165 4 236 8 l127 8 0 -24 c0 -24 -16 -37 -46 -37 -8 0 -14 5 -14 10 0 6 9 10 20 10 11 0 20 5 20 11 0 6 -10 9 -22 7 -14 -2 -24 -13 -29 -32 -5 -17 -6 -32 -4 -34 8 -8 255 10 255 19 0 4 -8 16 -18 26 -10 10 -51 68 -91 128 -40 61 -85 124 -100 140 -15 17 -35 42 -43 56 l-16 26 -214 -1 c-117 0 -231 -2 -253 -3z m413 -36 c-2 -7 23 -52 56 -99 32 -48 55 -91 52 -97 -4 -6 -69 -10 -164 -10 -86 -1 -195 -5 -242 -9 -47 -5 -87 -5 -88 0 -2 4 -27 38 -56 76 -64 81 -77 104 -67 120 8 13 180 26 394 30 95 2 117 0 115 -11z"/>
 <path d="M1928 3135 c-2 -1 -54 -5 -116 -7 -62 -3 -115 -8 -118 -11 -5 -5 42 -73 98 -140 l23 -28 155 9 c85 5 187 9 226 8 84 -1 83 -5 11 102 l-50 73 -113 -2 c-62 -1 -114 -2 -116 -4z"/>
 <path d="M2210 2853 c-14 -1 -77 -5 -141 -8 l-115 -7 1 -47 c1 -30 9 -61 24 -84 21 -35 25 -37 75 -37 29 0 88 -3 131 -7 l77 -6 -7 24 c-5 13 -11 58 -14 99 -6 72 -7 75 -31 73z"/>
 <path d="M1880 2835 c0 -9 9 -15 24 -15 30 0 42 15 20 24 -27 10 -44 7 -44 -9z"/>
 <path d="M3205 2849 c-11 -17 1 -21 15 -4 8 9 8 15 2 15 -6 0 -14 -5 -17 -11z"/>
 <path d="M1390 2610 c0 -5 5 -10 10 -10 6 0 10 5 10 10 0 6 -4 10 -10 10 -5 0 -10 -4 -10 -10z"/>
 <path d="M2623 2577 c-5 -9 -24 -420 -19 -425 2 -1 72 2 157 7 85 5 165 9 179 8 14 0 108 3 210 7 102 4 224 3 272 -1 48 -5 93 -6 100 -3 11 4 14 45 13 195 l0 190 -160 3 c-88 2 -198 8 -245 14 -103 13 -500 16 -507 5z"/>
 <path d="M3555 2313 c7 -197 7 -198 44 -293 21 -52 48 -123 61 -157 12 -35 23 -63 24 -63 1 0 2 111 2 247 -1 235 -2 248 -22 269 -11 13 -38 61 -60 108 -21 47 -43 85 -48 86 -5 0 -5 -87 -1 -197z"/>
 <path d="M1453 2405 c0 -16 -6 -73 -13 -125 -7 -52 -15 -150 -19 -217 l-6 -122 285 5 c495 7 642 12 652 22 5 5 11 49 13 98 3 49 9 143 15 209 5 66 10 130 10 143 l0 22 -469 -2 -469 -3 1 -30z"/>
 <path d="M2405 2333 c-4 -49 -11 -115 -16 -148 -10 -70 -11 -164 -1 -217 8 -45 43 -89 187 -236 l110 -113 8 83 c4 46 8 115 8 153 0 63 -4 78 -36 135 -20 36 -43 72 -51 81 -8 8 -14 20 -14 26 0 6 -7 16 -15 23 -12 10 -14 24 -9 61 6 48 5 51 -37 97 -25 26 -60 68 -78 95 -19 26 -38 47 -42 47 -4 0 -10 -39 -14 -87z"/>
 <path d="M3118 2155 c-2 -2 -114 -5 -251 -7 -136 -3 -250 -7 -252 -10 -11 -10 111 -228 128 -228 4 0 7 18 7 39 0 38 2 40 38 45 32 6 223 -13 303 -30 17 -3 29 -15 37 -38 17 -46 42 -66 88 -69 37 -2 39 0 42 29 3 31 4 32 48 29 57 -4 58 14 2 52 -23 15 -43 33 -45 40 -7 21 44 63 77 63 16 0 30 5 30 10 0 15 53 12 74 -3 10 -7 16 -22 14 -33 -3 -15 -10 -18 -33 -16 -17 2 -31 8 -33 13 -9 24 -112 -1 -112 -27 0 -7 18 -23 40 -35 22 -13 43 -33 46 -45 5 -19 16 -23 87 -34 121 -17 124 -18 147 -62 11 -22 27 -47 35 -55 8 -8 15 -21 15 -29 0 -8 7 -14 15 -14 20 0 20 -2 -16 88 -17 42 -35 86 -39 97 -4 11 -15 37 -24 58 -9 21 -16 42 -16 47 0 4 -10 31 -22 59 -22 50 -24 51 -65 51 -23 0 -45 5 -48 11 -6 9 -307 13 -317 4z"/>
 <path d="M3400 2061 c0 -5 9 -11 20 -14 13 -3 20 0 20 9 0 8 -9 14 -20 14 -11 0 -20 -4 -20 -9z"/>
 <path d="M2795 1971 l-30 -6 -4 -101 -3 -101 58 -12 c157 -32 270 -49 277 -41 10 9 10 178 1 214 -5 23 -1 22 -239 50 -16 2 -43 1 -60 -3z"/>
 <path d="M2046 1933 c-1 -1 -133 -4 -294 -5 -202 -3 -295 -7 -303 -15 -9 -9 0 -26 35 -70 26 -32 80 -101 121 -154 55 -70 85 -98 111 -108 43 -15 49 -11 37 26 -7 20 -18 29 -42 34 -50 10 -106 60 -106 94 0 23 6 30 30 38 29 10 45 23 45 40 0 11 -50 28 -85 29 -47 1 -62 38 -23 59 19 10 25 8 43 -15 12 -15 35 -30 51 -35 23 -6 30 -14 32 -39 3 -28 -1 -33 -38 -52 -38 -20 -41 -23 -26 -38 18 -21 104 -67 111 -60 3 2 7 31 10 63 3 32 6 60 8 62 8 8 555 5 569 -3 28 -16 180 -165 175 -171 -7 -6 -117 87 -117 98 0 4 -14 18 -32 30 l-31 23 7 -159 c5 -122 10 -165 23 -185 17 -26 119 -130 128 -130 5 0 -6 212 -11 219 -3 3 -10 -3 -17 -12 -18 -25 -39 -5 -41 39 -1 33 2 39 22 42 12 2 22 -1 22 -7 0 -6 -7 -11 -15 -11 -10 0 -15 -10 -15 -27 0 -21 3 -24 12 -15 7 7 21 12 33 13 20 0 20 0 0 8 -20 8 -20 8 2 15 11 4 24 13 27 21 4 12 25 15 93 15 l88 0 -107 108 c-58 59 -129 136 -157 172 l-52 65 -160 0 c-88 0 -162 -1 -163 -2z"/>
 <path d="M3291 1891 c-9 -6 -11 -18 -7 -34 3 -14 2 -29 -4 -32 -11 -7 -14 -113 -4 -139 5 -13 23 -16 88 -16 44 -1 100 -4 122 -9 l42 -8 6 61 c3 34 8 82 12 107 l6 45 -98 13 c-55 7 -110 15 -124 17 -14 3 -31 0 -39 -5z"/>
 <path d="M1570 1880 c0 -5 7 -10 15 -10 8 0 15 5 15 10 0 6 -7 10 -15 10 -8 0 -15 -4 -15 -10z"/>
 <path d="M3118 1798 c-4 -91 -4 -94 30 -151 18 -32 36 -57 38 -54 2 2 5 49 5 105 0 98 -1 103 -31 147 -17 25 -32 45 -34 45 -2 0 -6 -42 -8 -92z"/>
 <path d="M3197 1822 c18 -16 22 -27 17 -51 -6 -27 -4 -31 15 -31 18 0 21 6 21 45 0 29 -4 45 -12 45 -7 0 -24 3 -38 6 l-25 6 22 -20z"/>
 <path d="M3566 1819 c-3 -13 -9 -63 -13 -110 -6 -83 -5 -86 24 -127 l30 -41 7 46 c3 25 6 81 6 125 0 62 -3 80 -16 85 -9 3 -19 15 -23 26 -7 20 -8 19 -15 -4z"/>
 <path d="M1802 1772 l-33 -3 3 -153 3 -153 100 -7 c108 -7 295 -11 388 -8 l57 2 -2 154 c-2 85 -7 158 -11 163 -8 8 -440 13 -505 5z m243 -136 c22 -16 14 -46 -13 -46 -25 0 -46 25 -38 45 7 19 26 19 51 1z"/>
 <path d="M2760 1727 c0 -9 14 -17 38 -20 129 -21 240 -37 260 -37 39 0 24 17 -20 23 -37 5 -102 16 -250 44 -20 4 -28 1 -28 -10z"/>
 <path d="M2788 1664 c11 -16 42 -50 69 -75 l48 -47 121 -16 c66 -9 126 -16 132 -16 12 0 -57 109 -81 127 -6 6 -64 17 -127 27 -63 9 -130 19 -149 23 l-34 6 21 -29z"/>
 <path d="M3100 1655 c0 -20 74 -119 78 -105 4 10 -64 120 -74 120 -2 0 -4 -7 -4 -15z"/>
 <path d="M3300 1643 c8 -10 32 -37 54 -60 43 -46 52 -49 174 -58 l73 -6 -35 47 c-20 26 -36 50 -36 54 0 11 -84 29 -169 35 -70 5 -73 5 -61 -12z"/>
 <path d="M1780 1432 c0 -6 4 -12 9 -14 5 -1 29 -21 53 -43 24 -22 67 -61 97 -85 l53 -45 222 0 c121 -1 233 1 248 5 26 5 24 7 -57 90 l-85 85 -177 1 c-98 0 -220 4 -270 9 -64 5 -93 5 -93 -3z"/>
 <path d="M1861 623 l-13 -107 33 -29 c106 -88 132 2 47 162 -24 44 -46 81 -49 81 -3 0 -11 -48 -18 -107z"/>
 <path d="M2550 757 c0 -21 37 -50 55 -44 29 12 20 22 -47 55 -5 2 -8 -3 -8 -11z"/>
 <path d="M2196 864 c-20 -20 -21 -113 -2 -140 14 -19 15 -18 35 5 39 44 39 121 1 141 -14 7 -23 6 -34 -6z"/>
 <path d="M1223 644 c8 -50 24 -65 42 -40 16 21 6 45 -28 66 -19 11 -20 10 -14 -26z"/>
 </g>

</svg>